<mxfile host="65bd71144e">
    <diagram id="Mq88om0MZ4iqaWooZR1S" name="PÃ¡gina-1">
        <mxGraphModel dx="1184" dy="620" grid="1" gridSize="10" guides="1" tooltips="1" connect="1" arrows="1" fold="1" page="1" pageScale="1" pageWidth="827" pageHeight="1169" math="0" shadow="0">
            <root>
                <mxCell id="0"/>
                <mxCell id="1" parent="0"/>
                <mxCell id="44" style="edgeStyle=none;html=1;exitX=0;exitY=0;exitDx=0;exitDy=0;entryX=0.5;entryY=1;entryDx=0;entryDy=0;" edge="1" parent="1" source="45" target="56">
                    <mxGeometry relative="1" as="geometry"/>
                </mxCell>
                <mxCell id="45" value="Estudiante" style="rounded=0;whiteSpace=wrap;html=1;" vertex="1" parent="1">
                    <mxGeometry x="200" y="215" width="120" height="60" as="geometry"/>
                </mxCell>
                <mxCell id="46" value="Curso" style="rounded=0;whiteSpace=wrap;html=1;" vertex="1" parent="1">
                    <mxGeometry x="454" y="215" width="120" height="60" as="geometry"/>
                </mxCell>
                <mxCell id="47" value="Profesor" style="rounded=0;whiteSpace=wrap;html=1;" vertex="1" parent="1">
                    <mxGeometry x="454" y="501" width="120" height="60" as="geometry"/>
                </mxCell>
                <mxCell id="48" value="Departamento" style="rounded=0;whiteSpace=wrap;html=1;" vertex="1" parent="1">
                    <mxGeometry x="206" y="501" width="120" height="60" as="geometry"/>
                </mxCell>
                <mxCell id="49" value="" style="endArrow=none;html=1;exitX=1.005;exitY=0.52;exitDx=0;exitDy=0;exitPerimeter=0;entryX=0;entryY=0.5;entryDx=0;entryDy=0;" edge="1" parent="1" source="45" target="46">
                    <mxGeometry width="50" height="50" relative="1" as="geometry">
                        <mxPoint x="420" y="245" as="sourcePoint"/>
                        <mxPoint x="470" y="195" as="targetPoint"/>
                    </mxGeometry>
                </mxCell>
                <mxCell id="50" value="" style="endArrow=none;html=1;exitX=0.5;exitY=1;exitDx=0;exitDy=0;entryX=0.5;entryY=0;entryDx=0;entryDy=0;startArrow=none;" edge="1" parent="1" source="87" target="47">
                    <mxGeometry width="50" height="50" relative="1" as="geometry">
                        <mxPoint x="510" y="481.0999999999999" as="sourcePoint"/>
                        <mxPoint x="709.4" y="431" as="targetPoint"/>
                    </mxGeometry>
                </mxCell>
                <mxCell id="51" value="" style="endArrow=none;html=1;exitX=1;exitY=0.5;exitDx=0;exitDy=0;entryX=0;entryY=0.5;entryDx=0;entryDy=0;" edge="1" parent="1" source="48" target="47">
                    <mxGeometry width="50" height="50" relative="1" as="geometry">
                        <mxPoint x="520" y="387" as="sourcePoint"/>
                        <mxPoint x="520" y="477" as="targetPoint"/>
                    </mxGeometry>
                </mxCell>
                <mxCell id="52" value="1:N" style="text;html=1;align=center;verticalAlign=middle;resizable=0;points=[];autosize=1;strokeColor=none;fillColor=none;" vertex="1" parent="1">
                    <mxGeometry x="370" y="175" width="40" height="30" as="geometry"/>
                </mxCell>
                <mxCell id="53" value="&lt;span style=&quot;color: rgba(0, 0, 0, 0); font-family: monospace; font-size: 0px; text-align: start;&quot;&gt;%3CmxGraphModel%3E%3Croot%3E%3CmxCell%20id%3D%220%22%2F%3E%3CmxCell%20id%3D%221%22%20parent%3D%220%22%2F%3E%3CmxCell%20id%3D%222%22%20value%3D%22N%3A1%22%20style%3D%22text%3Bhtml%3D1%3Balign%3Dcenter%3BverticalAlign%3Dmiddle%3Bresizable%3D0%3Bpoints%3D%5B%5D%3Bautosize%3D1%3BstrokeColor%3Dnone%3BfillColor%3Dnone%3B%22%20vertex%3D%221%22%20parent%3D%221%22%3E%3CmxGeometry%20x%3D%22330%22%20y%3D%22230%22%20width%3D%2240%22%20height%3D%2230%22%20as%3D%22geometry%22%2F%3E%3C%2FmxCell%3E%3C%2Froot%3E%3C%2FmxGraphModel%3E&lt;/span&gt;" style="text;html=1;align=center;verticalAlign=middle;resizable=0;points=[];autosize=1;strokeColor=none;fillColor=none;" vertex="1" parent="1">
                    <mxGeometry x="530" y="300" width="20" height="30" as="geometry"/>
                </mxCell>
                <mxCell id="54" value="N:N" style="text;html=1;align=center;verticalAlign=middle;resizable=0;points=[];autosize=1;strokeColor=none;fillColor=none;rotation=90;" vertex="1" parent="1">
                    <mxGeometry x="553.52" y="390" width="40" height="30" as="geometry"/>
                </mxCell>
                <mxCell id="55" value="N:1" style="text;html=1;align=center;verticalAlign=middle;resizable=0;points=[];autosize=1;strokeColor=none;fillColor=none;rotation=0;" vertex="1" parent="1">
                    <mxGeometry x="366" y="577" width="40" height="30" as="geometry"/>
                </mxCell>
                <mxCell id="56" value="StudentID" style="ellipse;whiteSpace=wrap;html=1;fontStyle=4" vertex="1" parent="1">
                    <mxGeometry x="130" y="145" width="80" height="40" as="geometry"/>
                </mxCell>
                <mxCell id="57" style="edgeStyle=none;html=1;exitX=0.5;exitY=0;exitDx=0;exitDy=0;entryX=0.5;entryY=1;entryDx=0;entryDy=0;" edge="1" parent="1" source="45" target="58">
                    <mxGeometry relative="1" as="geometry">
                        <mxPoint x="280" y="205" as="sourcePoint"/>
                    </mxGeometry>
                </mxCell>
                <mxCell id="58" value="FirstName" style="ellipse;whiteSpace=wrap;html=1;" vertex="1" parent="1">
                    <mxGeometry x="210" y="135" width="80" height="40" as="geometry"/>
                </mxCell>
                <mxCell id="59" style="edgeStyle=none;html=1;exitX=0;exitY=0.5;exitDx=0;exitDy=0;entryX=1;entryY=0.5;entryDx=0;entryDy=0;" edge="1" parent="1" source="45" target="60">
                    <mxGeometry relative="1" as="geometry">
                        <mxPoint x="140" y="300" as="sourcePoint"/>
                    </mxGeometry>
                </mxCell>
                <mxCell id="60" value="LastName" style="ellipse;whiteSpace=wrap;html=1;" vertex="1" parent="1">
                    <mxGeometry x="90" y="220" width="80" height="45" as="geometry"/>
                </mxCell>
                <mxCell id="61" style="edgeStyle=none;html=1;exitX=0.25;exitY=1;exitDx=0;exitDy=0;entryX=0.986;entryY=0.37;entryDx=0;entryDy=0;entryPerimeter=0;" edge="1" parent="1" target="62">
                    <mxGeometry relative="1" as="geometry">
                        <mxPoint x="200" y="275.0000000000001" as="sourcePoint"/>
                    </mxGeometry>
                </mxCell>
                <mxCell id="62" value="DateOfBirth" style="ellipse;whiteSpace=wrap;html=1;" vertex="1" parent="1">
                    <mxGeometry x="90" y="275" width="80" height="45" as="geometry"/>
                </mxCell>
                <mxCell id="63" style="edgeStyle=none;html=1;exitX=0.25;exitY=0;exitDx=0;exitDy=0;entryX=0.5;entryY=1;entryDx=0;entryDy=0;" edge="1" parent="1" source="46" target="64">
                    <mxGeometry relative="1" as="geometry">
                        <mxPoint x="530" y="157.5" as="sourcePoint"/>
                    </mxGeometry>
                </mxCell>
                <mxCell id="64" value="CourseID" style="ellipse;whiteSpace=wrap;html=1;fontStyle=4" vertex="1" parent="1">
                    <mxGeometry x="420" y="132.5" width="90" height="45" as="geometry"/>
                </mxCell>
                <mxCell id="65" style="edgeStyle=none;html=1;exitX=0.75;exitY=0;exitDx=0;exitDy=0;entryX=0.5;entryY=1;entryDx=0;entryDy=0;" edge="1" parent="1" source="46" target="66">
                    <mxGeometry relative="1" as="geometry">
                        <mxPoint x="574" y="206.25" as="sourcePoint"/>
                    </mxGeometry>
                </mxCell>
                <mxCell id="66" value="CourseName" style="ellipse;whiteSpace=wrap;html=1;" vertex="1" parent="1">
                    <mxGeometry x="520" y="130" width="90" height="45" as="geometry"/>
                </mxCell>
                <mxCell id="67" style="edgeStyle=none;html=1;exitX=1.008;exitY=0.4;exitDx=0;exitDy=0;entryX=0.089;entryY=0.803;entryDx=0;entryDy=0;exitPerimeter=0;entryPerimeter=0;" edge="1" parent="1" source="46" target="68">
                    <mxGeometry relative="1" as="geometry">
                        <mxPoint x="614" y="270" as="sourcePoint"/>
                    </mxGeometry>
                </mxCell>
                <mxCell id="68" value="Credits" style="ellipse;whiteSpace=wrap;html=1;" vertex="1" parent="1">
                    <mxGeometry x="590" y="185" width="90" height="50" as="geometry"/>
                </mxCell>
                <mxCell id="69" style="edgeStyle=none;html=1;exitX=1.004;exitY=0.365;exitDx=0;exitDy=0;entryX=0.089;entryY=0.803;entryDx=0;entryDy=0;exitPerimeter=0;entryPerimeter=0;" edge="1" parent="1" source="47" target="70">
                    <mxGeometry relative="1" as="geometry">
                        <mxPoint x="578.48" y="521" as="sourcePoint"/>
                    </mxGeometry>
                </mxCell>
                <mxCell id="70" value="ProfesorID" style="ellipse;whiteSpace=wrap;html=1;fontStyle=4" vertex="1" parent="1">
                    <mxGeometry x="593.52" y="467" width="90" height="50" as="geometry"/>
                </mxCell>
                <mxCell id="71" style="edgeStyle=none;html=1;exitX=1.002;exitY=0.622;exitDx=0;exitDy=0;entryX=0.055;entryY=0.258;entryDx=0;entryDy=0;exitPerimeter=0;entryPerimeter=0;" edge="1" parent="1" source="47" target="72">
                    <mxGeometry relative="1" as="geometry">
                        <mxPoint x="574.48" y="596.9" as="sourcePoint"/>
                    </mxGeometry>
                </mxCell>
                <mxCell id="72" value="Nombre" style="ellipse;whiteSpace=wrap;html=1;" vertex="1" parent="1">
                    <mxGeometry x="596" y="541" width="91.52" height="50" as="geometry"/>
                </mxCell>
                <mxCell id="73" style="edgeStyle=none;html=1;exitX=0.75;exitY=1;exitDx=0;exitDy=0;" edge="1" parent="1" source="47" target="74">
                    <mxGeometry relative="1" as="geometry">
                        <mxPoint x="506.0000000000001" y="591" as="sourcePoint"/>
                    </mxGeometry>
                </mxCell>
                <mxCell id="74" value="Apellido" style="ellipse;whiteSpace=wrap;html=1;" vertex="1" parent="1">
                    <mxGeometry x="531.76" y="593.6800000000001" width="91.52" height="50" as="geometry"/>
                </mxCell>
                <mxCell id="75" style="edgeStyle=none;html=1;exitX=0.614;exitY=1.036;exitDx=0;exitDy=0;exitPerimeter=0;" edge="1" parent="1" source="48" target="76">
                    <mxGeometry relative="1" as="geometry">
                        <mxPoint x="232.72000000000014" y="543.3399999999999" as="sourcePoint"/>
                    </mxGeometry>
                </mxCell>
                <mxCell id="76" value="DepartmentName" style="ellipse;whiteSpace=wrap;html=1;" vertex="1" parent="1">
                    <mxGeometry x="224.48" y="622" width="111.52" height="50" as="geometry"/>
                </mxCell>
                <mxCell id="77" style="edgeStyle=none;html=1;exitX=0;exitY=1;exitDx=0;exitDy=0;" edge="1" parent="1" source="48" target="78">
                    <mxGeometry relative="1" as="geometry">
                        <mxPoint x="129.68000000000006" y="512.8199999999999" as="sourcePoint"/>
                    </mxGeometry>
                </mxCell>
                <mxCell id="78" value="DepartmentID" style="ellipse;whiteSpace=wrap;html=1;fontStyle=4" vertex="1" parent="1">
                    <mxGeometry x="70.23999999999998" y="607" width="111.52" height="50" as="geometry"/>
                </mxCell>
                <mxCell id="85" value="Matricula" style="rhombus;whiteSpace=wrap;html=1;fontSize=12;fontColor=default;" vertex="1" parent="1">
                    <mxGeometry x="350" y="205.00000000000003" width="80" height="80" as="geometry"/>
                </mxCell>
                <mxCell id="86" value="" style="endArrow=none;html=1;exitX=0.5;exitY=1;exitDx=0;exitDy=0;entryX=0.5;entryY=0;entryDx=0;entryDy=0;" edge="1" parent="1" source="46" target="87">
                    <mxGeometry width="50" height="50" relative="1" as="geometry">
                        <mxPoint x="513.9999999999999" y="275" as="sourcePoint"/>
                        <mxPoint x="513.9999999999999" y="365" as="targetPoint"/>
                    </mxGeometry>
                </mxCell>
                <mxCell id="87" value="Imparte" style="rhombus;whiteSpace=wrap;html=1;fontSize=12;fontColor=default;" vertex="1" parent="1">
                    <mxGeometry x="474" y="365" width="80" height="80" as="geometry"/>
                </mxCell>
                <mxCell id="88" value="Asociado" style="rhombus;whiteSpace=wrap;html=1;fontSize=12;fontColor=default;" vertex="1" parent="1">
                    <mxGeometry x="346" y="491" width="80" height="80" as="geometry"/>
                </mxCell>
                <mxCell id="89" value="Ofrecido" style="rhombus;whiteSpace=wrap;html=1;fontSize=12;fontColor=default;" vertex="1" parent="1">
                    <mxGeometry x="226" y="355" width="80" height="80" as="geometry"/>
                </mxCell>
                <mxCell id="90" value="" style="endArrow=none;html=1;exitX=0.25;exitY=1;exitDx=0;exitDy=0;entryX=0.5;entryY=0;entryDx=0;entryDy=0;" edge="1" parent="1" source="46" target="89">
                    <mxGeometry width="50" height="50" relative="1" as="geometry">
                        <mxPoint x="524" y="285" as="sourcePoint"/>
                        <mxPoint x="524" y="375" as="targetPoint"/>
                    </mxGeometry>
                </mxCell>
                <mxCell id="91" value="" style="endArrow=none;html=1;exitX=0.5;exitY=1;exitDx=0;exitDy=0;entryX=0.5;entryY=0;entryDx=0;entryDy=0;" edge="1" parent="1" source="89" target="48">
                    <mxGeometry width="50" height="50" relative="1" as="geometry">
                        <mxPoint x="494" y="285" as="sourcePoint"/>
                        <mxPoint x="276" y="365" as="targetPoint"/>
                    </mxGeometry>
                </mxCell>
                <mxCell id="92" value="1:N" style="text;html=1;align=center;verticalAlign=middle;resizable=0;points=[];autosize=1;strokeColor=none;fillColor=none;rotation=90;" vertex="1" parent="1">
                    <mxGeometry x="310" y="380" width="40" height="30" as="geometry"/>
                </mxCell>
            </root>
        </mxGraphModel>
    </diagram>
</mxfile>